# Blender v2.78 (sub 0) OBJ File: 'plane1.blend'
# www.blender.org
mtllib plane1.mtl
o plane1
v -42.000000 0.999991 56.000000
v -42.000000 0.000006 -36.000000
v -42.000000 -0.000009 56.000000
v -42.000000 1.000006 -36.000000
v 45.000000 -0.000009 56.000000
v 45.000000 0.000006 -36.000000
v 45.000000 0.999991 56.000000
v 45.000000 1.000006 -36.000000
v 45.000000 -0.000009 56.000000
v -42.000000 0.999991 56.000000
v -42.000000 -0.000009 56.000000
v 45.000000 0.999991 56.000000
v -42.000000 0.000006 -36.000000
v -42.000000 1.000006 -36.000000
v 45.000000 0.000006 -36.000000
v 45.000000 1.000006 -36.000000
v -42.000000 0.000006 -36.000000
v 45.000000 -0.000009 56.000000
v -42.000000 -0.000009 56.000000
v 45.000000 0.000006 -36.000000
v -42.000000 0.999991 56.000000
v 45.000000 0.999991 56.000000
v -42.000000 1.000006 -36.000000
v 45.000000 1.000006 -36.000000
vt 0.9861 0.0028
vt 0.9806 0.5110
vt 0.9806 0.0028
vt 0.9861 0.5110
vt 0.9917 0.5110
vt 0.9917 0.0028
vt 0.9972 0.5110
vt 0.9972 0.0028
vt 0.0028 0.5166
vt 0.0083 0.9972
vt 0.0028 0.9972
vt 0.0083 0.5166
vt 0.0139 0.5166
vt 0.0194 0.5166
vt 0.0139 0.9972
vt 0.0194 0.9972
vt 0.9750 0.5110
vt 0.4917 0.0028
vt 0.9750 0.0028
vt 0.4917 0.5110
vt 0.0028 0.0028
vt 0.4861 0.0028
vt 0.0028 0.5110
vt 0.4861 0.5110
vn -1.0000 0.0000 0.0000
vn 1.0000 0.0000 0.0000
vn 0.0000 0.0000 1.0000
vn 0.0000 0.0000 -1.0000
vn 0.0000 -1.0000 -0.0000
vn 0.0000 1.0000 0.0000
usemtl Plane1
s 1
f 1/1/1 2/2/1 3/3/1
f 4/4/1 2/2/1 1/1/1
f 5/5/2 6/6/2 7/7/2
f 7/7/2 6/6/2 8/8/2
f 9/9/3 10/10/3 11/11/3
f 12/12/3 10/10/3 9/9/3
f 13/13/4 14/14/4 15/15/4
f 15/15/4 14/14/4 16/16/4
f 17/17/5 18/18/5 19/19/5
f 20/20/5 18/18/5 17/17/5
f 21/21/6 22/22/6 23/23/6
f 23/23/6 22/22/6 24/24/6
